# xmcd
#
# Track frame offsets: 
#        150
#        12930
#        25335
#        36600
#        67437
#        84825
#        98600
#        123075
#        148575
#        178895
#
# Disc length: 2682 seconds
#
# Revision: 1
# Processed by: cddbd v1.5.2PL0 Copyright (c) Steve Scherf et al.
# Submitted via: ExactAudioCopy v1.3
#
DISCID=870a780a
DTITLE=John Lee Hooker - Introducing....
DYEAR=1991
DGENRE=Blues
TTITLE0=Leave My Wife Alone
TTITLE1=Walkin' The Boogie
TTITLE2=Please Don't Go
TTITLE3=Let's Go Out Tonight
TTITLE4=Peace Lovin' Man
TTITLE5=One Bourbon, One Scotch, One Beer
TTITLE6=I'm Bad Like Jesse James
TTITLE7=I Don't Wanna Go To Vietnam
TTITLE8=Kick Hit 4 Hit Kix U (Blues For Jimi And Janis)
TTITLE9=I'll Never Get Out Of These Blues Alive
EXTD=YEAR: 1991 ID3G: 0
EXTT0=
EXTT1=
EXTT2=
EXTT3=
EXTT4=
EXTT5=
EXTT6=
EXTT7=
EXTT8=
EXTT9=
PLAYORDER=
